<svg version="1.1" xmlns="http://www.w3.org/2000/svg" xmlns:xlink="http://www.w3.org/1999/xlink" x="0px" y="0px" viewBox="-375.4 363.7 74.3 74.3" style="enable-background:new -375.4 363.7 74.3 74.3;" xml:space="preserve">
	<style type="text/css">.st0{fill:#000000;}</style>
	<path d="M-301.2,389c0-0.1,0-0.2-0.1-0.3c0-0.1,0-0.1,0-0.2c0-0.1-0.1-0.2-0.1-0.2c0-0.1,0-0.1-0.1-0.2c0-0.1-0.1-0.1-0.1-0.2c0-0.1-0.1-0.1-0.1-0.1c0-0.1-0.1-0.1-0.1-0.2c0,0-0.1-0.1-0.1-0.1c-0.1-0.1-0.1-0.1-0.2-0.2c0,0-0.1-0.1-0.1-0.1c-0.1-0.1-0.1-0.1-0.2-0.2c0,0-0.1-0.1-0.1-0.1c0,0,0,0-0.1,0l-33.9-22.6c-1.1-0.7-2.5-0.7-3.5,0l-33.9,22.6c0,0,0,0-0.1,0c-0.1,0-0.1,0.1-0.1,0.1c-0.1,0-0.1,0.1-0.2,0.1c0,0-0.1,0.1-0.1,0.1c-0.1,0.1-0.1,0.1-0.2,0.2c0,0-0.1,0.1-0.1,0.1c0,0.1-0.1,0.1-0.1,0.2c0,0-0.1,0.1-0.1,0.1c0,0.1-0.1,0.1-0.1,0.2c0,0.1,0,0.1-0.1,0.2c0,0.1-0.1,0.2-0.1,0.2c0,0.1,0,0.1,0,0.1c0,0.1,0,0.2-0.1,0.3c0,0,0,0.1,0,0.1c0,0.1,0,0.3,0,0.4v22.6c0,0.1,0,0.3,0,0.4c0,0.1,0,0.1,0,0.1c0,0.1,0,0.2,0.1,0.3c0,0,0,0.1,0.1,0.2c0,0.1,0,0.2,0.1,0.2c0,0,0,0.1,0.1,0.1c0,0.1,0.1,0.1,0.1,0.2c0,0,0.1,0.1,0.1,0.1c0,0.1,0.1,0.1,0.1,0.2c0,0,0.1,0.1,0.1,0.1c0.1,0.1,0.1,0.1,0.2,0.2c0,0,0.1,0.1,0.1,0.1c0.1,0,0.1,0.1,0.2,0.2c0,0,0.1,0.1,0.1,0.1c0,0,0,0,0,0l33.9,22.6c0.5,0.4,1.1,0.5,1.8,0.5c0.6,0,1.2-0.2,1.8-0.5l33.9-22.6c0,0,0,0,0.1,0c0.1,0,0.1-0.1,0.1-0.1c0.1,0,0.1-0.1,0.2-0.2c0,0,0.1-0.1,0.1-0.1c0.1-0.1,0.1-0.1,0.2-0.2c0,0,0.1-0.1,0.1-0.1c0-0.1,0.1-0.1,0.1-0.2c0,0,0.1-0.1,0.1-0.1c0-0.1,0.1-0.1,0.1-0.2c0-0.1,0-0.1,0.1-0.2c0-0.1,0.1-0.2,0.1-0.2c0-0.1,0-0.1,0-0.2c0-0.1,0-0.2,0.1-0.3c0,0,0-0.1,0-0.1c0-0.1,0-0.3,0-0.4v-22.6c0-0.1,0-0.3,0-0.4C-301.2,389.1-301.2,389.1-301.2,389L-301.2,389z M-338.3,408.4l-11.3-7.5l11.3-7.5l11.3,7.5L-338.3,408.4z M-341.4,387.8l-13.8,9.3l-11.2-7.5l25-16.7V387.8z M-361,400.9l-8,5.3v-10.7L-361,400.9z M-355.3,404.7l13.8,9.3v14.9l-25-16.7L-355.3,404.7L-355.3,404.7z M-335.1,414l13.8-9.3l11.2,7.5l-25,16.7V414z M-315.5,400.9l8-5.3v10.7L-315.5,400.9L-315.5,400.9z M-321.2,397l-13.8-9.3v-14.9l25,16.7L-321.2,397z"/>
</svg>
